<?xml version="1.0" standalone="no"?>
<!DOCTYPE svg PUBLIC "-//W3C//DTD SVG 20010904//EN"
 "http://www.w3.org/TR/2001/REC-SVG-20010904/DTD/svg10.dtd">
<svg version="1.0" xmlns="http://www.w3.org/2000/svg"
 width="338.000000pt" height="179.000000pt" viewBox="0 0 338.000000 179.000000"
 preserveAspectRatio="xMidYMid meet">
<metadata>
Created by potrace 1.15, written by Peter Selinger 2001-2017
</metadata>
<g transform="translate(0.000000,179.000000) scale(0.100000,-0.100000)"
fill="#000000" stroke="none">
<path d="M1515 1767 c-76 -31 -108 -72 -121 -156 -7 -45 -7 -45 -109 -57 -68
-7 -99 -21 -134 -57 -29 -31 -23 -69 14 -93 23 -15 75 -16 476 -16 l451 0 24
23 c40 37 30 75 -30 114 -21 14 -53 23 -111 31 -99 15 -92 11 -99 57 -9 59
-45 117 -86 141 -28 17 -55 21 -140 23 -65 2 -116 -2 -135 -10z"/>
<path d="M1400 1302 c-65 -4 -78 -13 -63 -44 7 -13 14 -41 18 -62 4 -24 18
-51 36 -69 28 -28 33 -29 104 -25 87 4 100 13 125 88 17 49 18 50 24 23 13
-56 29 -84 57 -98 33 -18 128 -20 163 -4 24 11 56 71 56 104 0 9 5 24 12 34
21 34 3 51 -54 52 -141 3 -429 4 -478 1z m159 -49 c21 -5 23 -10 18 -46 -3
-22 -10 -44 -16 -50 -15 -15 -105 -21 -129 -8 -30 16 -41 80 -17 98 20 13 102
17 144 6z m295 1 c23 -9 21 -69 -4 -94 -24 -24 -95 -27 -127 -5 -31 22 -41 75
-17 92 18 13 119 18 148 7z"/>
<path d="M1530 1043 c-8 -3 -37 -27 -65 -53 -54 -51 -83 -65 -116 -55 -28 9
-22 49 9 53 32 5 27 22 -6 22 -65 0 -91 -53 -51 -104 47 -60 237 -74 310 -22
19 13 26 12 72 -10 87 -40 214 -30 277 22 37 32 41 75 8 98 -25 18 -78 22 -78
6 0 -5 8 -10 19 -10 29 0 47 -26 30 -46 -24 -29 -77 -11 -136 48 -46 45 -59
53 -92 53 -23 0 -47 -8 -58 -18 -17 -14 -21 -15 -34 -2 -16 17 -67 27 -89 18z"/>
<path d="M1365 709 c-29 -9 -47 -13 -99 -24 -105 -22 -331 -86 -351 -99 -61
-40 -98 -161 -99 -325 l-1 -104 77 -28 c86 -31 78 -29 233 -58 164 -30 296
-41 504 -41 217 0 451 20 451 38 0 4 -22 21 -47 37 -69 44 -113 132 -113 223
0 79 21 131 77 192 44 50 102 79 156 80 37 0 43 5 29 26 -4 6 -72 27 -152 47
-220 54 -196 54 -209 -1 -32 -126 -110 -355 -111 -323 0 18 -5 73 -12 121 -10
76 -9 93 5 129 16 39 16 42 -3 61 -15 15 -33 20 -71 20 -84 0 -105 -26 -79
-95 7 -18 7 -63 -2 -143 -13 -135 -9 -140 -83 102 -28 94 -56 171 -61 172 -5
1 -22 -2 -39 -7z"/>
<path d="M2138 560 c-77 -23 -140 -80 -164 -148 -73 -205 146 -397 332 -292
46 26 54 27 65 14 25 -30 130 -104 147 -104 25 0 42 19 42 47 0 16 -21 40 -74
84 -69 56 -74 63 -65 86 17 44 11 143 -12 189 -47 97 -171 154 -271 124z m138
-79 c120 -73 122 -238 4 -299 -118 -61 -252 18 -252 148 0 71 41 134 102 159
42 16 112 13 146 -8z"/>
</g>
</svg>
